<?xml version="1.0" encoding="UTF-8"?>
<svg xmlns="http://www.w3.org/2000/svg" viewBox="0 0 300.4 43.8">
  <path d="M168.26.05,150.05,41.58H154L160.33,27H176.2l6.42,14.56h3.85Zm-6.39,23.44L168.24,9l6.41,14.54Z" style="fill:#28509c"></path>
  <rect x="234.48" y="0.91" width="3.52" height="40.66" style="fill:#28509c"></rect>
  <polygon points="123.92 18.86 105.34 0.14 105.36 41.57 108.89 41.57 108.89 8.73 123.88 23.9 139.15 8.65 139.15 41.57 142.67 41.57 142.67 0.11 123.92 18.86" style="fill:#28509c"></polygon>
  <polygon points="279.68 0.91 279.68 32.58 252.43 0.22 252.43 5.85 252.43 41.57 255.96 41.57 255.96 10.04 283.2 42.44 283.2 0.91 279.68 0.91" style="fill:#28509c"></polygon>
  <path d="M219.72,41.59h4l-9.75-19A10.78,10.78,0,0,0,222,13h0v-.23c0-.21,0-.43,0-.65h0v-.38h0c0-.23,0-.44,0-.66h0A10.78,10.78,0,0,0,211.24.93H194.17V41.58h3.53V22.89h12.44Zm-22-37.12h13.54a7.25,7.25,0,0,1,7.24,7.1v.67a7.24,7.24,0,0,1-7.24,7.1v0H197.7Z" style="fill:#28509c"></path>
  <path d="M28.71,29.59a10.16,10.16,0,0,0-5.17-8.82A10.77,10.77,0,0,0,27.85,13h0v-.23c0-.21,0-.43,0-.65h0v-.38h0c0-.23,0-.44,0-.66h0A10.78,10.78,0,0,0,17.1.93h0L0,.92V41.58H17.75a11,11,0,0,0,11-10.82h0V29.59ZM17.1,4.47h0a7.25,7.25,0,0,1,7.24,7.12v.63a7.26,7.26,0,0,1-7.24,7.15H3.56V4.47Zm8.11,26.1h0a7.49,7.49,0,0,1-7.49,7.49H3.56V22.92l14.62,0h0a7.08,7.08,0,0,1,6.05,3.25,8.22,8.22,0,0,1,.95,3.62h0Z" style="fill:#28509c"></path>
  <path d="M54.69,23.88a21,21,0,0,0,41.7,0,21.72,21.72,0,0,0,.16-2.56A19.18,19.18,0,0,0,96.43,19a21,21,0,0,0-41.8,0h0a19.18,19.18,0,0,0-.12,2.29,21.72,21.72,0,0,0,.16,2.56M75.53,38.68a17.44,17.44,0,0,1-17.24-14.8h0a16.81,16.81,0,0,1-.19-2.57,18.18,18.18,0,0,1,.13-2.23h0a17.43,17.43,0,0,1,34.6,0,17.12,17.12,0,0,1,0,4.87A17.42,17.42,0,0,1,75.53,38.68Z" style="fill:#28509c"></path>
  <path d="M288.91,3a2.86,2.86,0,1,1,2.87,2.87A2.86,2.86,0,0,1,288.91,3Zm5.26,0a2.4,2.4,0,1,0-4.8,0,2.4,2.4,0,1,0,4.8,0Zm-1,1.6h-.47l-.91-1.47h-.71V4.57h-.39V1.38h1.39c.84,0,1.13.32,1.13.85s-.44.86-1,.87Zm-1.5-1.78c.45,0,1.11.08,1.11-.57s-.4-.56-.79-.56h-.91V2.79Z" style="fill:#28509c"></path>
  <path d="M39.18,1.08l-.79.45-.69.52-.22.48-.28.4-.07.15,0,.15,0,.16.26.71.46.29.52.59.38.36.55.26.55.17h.76l.5.09.55,0,.74,0,.71,0L44,5.94l.67-.19.81-.34.36-.4.4-.38.34-.53,0-.55-.14-.78-.86-1.24L44.8,1,44.42.77,44.14.66l-.27,0L43,.69,42.11.55,41.68.48,41.13.6l-.71.09L40,.86l-.78.22" style="fill:#f9423a;fill-rule:evenodd"></path>
  <polyline points="38.06 14.11 42.3 14.21 42.93 14.07 43.75 14.06 44.56 14.14 45.18 14.32 45.66 14.64 45.83 14.86 45.94 15.1 45.97 15.35 45.89 15.61 45.7 15.86 45.38 16.11 44.88 16.2 44.02 16.2 41.7 16.03 38.14 15.62 38.01 15.56 37.92 15.42 37.89 14.99 38.06 14.11" style="fill:#ed1849;fill-rule:evenodd"></polyline>
  <polyline points="39.25 18.02 39.61 18.24 39.85 18.38 40.11 18.45 40.29 18.41 40.51 18.31 40.73 18.2 40.93 18.16 41.3 18.29 41.7 18.43 42.03 18.33 42.37 18.23 42.77 18.37 42.96 18.45 43.16 18.45 44.39 18.28 45.34 18.43 45.4 18.48 45.42 18.52 45.39 18.64 45.35 18.76 45.39 18.89 45.63 19.02 45.89 19.13 46 19.21 46.07 19.33 46.09 19.5 46.04 19.74 45.95 19.86 45.79 19.95 45.25 20.07 43.56 20.13 41.14 19.82 39.04 19.43 38.73 19.3 38.49 19.02 38.35 18.7 38.3 18.4 39.25 18.02" style="fill:#ed037c;fill-rule:evenodd"></polyline>
  <polyline points="38.68 20.3 39.32 20.55 39.65 20.67 39.96 20.66 42.84 20.53 44 20.63 44.91 20.85 45.31 20.96 45.55 21.06 45.74 21.2 45.94 21.56 45.97 21.91 45.89 22.21 45.73 22.4 45.73 22.59 42.91 22.59 41.97 22.6 41.04 22.52 40.1 22.35 39.27 22.22 38.66 22.12 38.42 22.06 38.26 21.91 38.02 21.41 37.91 20.88 38.68 20.3" style="fill:#ed037c;fill-rule:evenodd"></polyline>
  <polyline points="38.89 23.67 40.17 23.84 40.59 23.88 40.97 23.82 41.46 23.77 42.24 23.83 43.36 23.85 44.48 23.79 44.87 23.78 45.2 23.92 45.78 24.41 45.98 24.64 46.09 24.93 46.12 25.23 46.05 25.54 45.7 26.5 45.51 26.92 45.22 27.26 45.07 27.33 44.87 27.34 44.39 27.25 43.9 27.12 43.47 27.07 43.16 27.14 42.89 27.27 42.61 27.39 42.29 27.43 41.37 27.19 40.86 27.12 40.27 27.22 40.11 27.23 39.96 27.17 39.81 27.09 39.65 27.05 39.29 27.04 39.15 27 39.08 26.91 38.65 26.24 38.17 25.69 37.99 25.44 37.92 25.15 38.03 24.8 38.29 24.43 38.89 23.67" style="fill:#a9218e;fill-rule:evenodd"></polyline>
  <polyline points="40.34 30.22 40.82 30.19 41.3 30.24 44.03 30.51 44.8 30.63 45.53 30.83 45.86 31.03 46.15 31.33 46.4 31.76 46.59 32.34 46.73 33.33 46.68 33.83 46.5 34.28 46.25 34.58 45.92 34.83 45.03 35.21 42.71 35.51 41.98 35.41 41.26 35.21 40.56 35.01 39.87 34.94 38.9 34.82 38.17 34.46 37.68 33.95 37.42 33.37 37.35 32.72 37.51 32.17 37.83 31.71 38.25 31.33 39.16 30.83 39.78 30.61 39.94 30.53 40.05 30.42 40.16 30.31 40.34 30.22" style="fill:#353d98;fill-rule:evenodd"></polyline>
  <polyline points="42.44 37.89 43.33 37.97 44.27 38.31 44.54 38.56 44.76 38.77 45.23 38.87 45.45 38.94 45.6 39.07 45.84 40.13 45.86 40.81 45.75 41.37 45.54 41.73 45.26 42.03 44.49 42.52 43.53 42.84 42.45 43.01 41.34 43.02 40.29 42.9 39.36 42.66 38.64 42.3 38.42 42.09 38.27 41.83 38.08 41.26 38.01 40.63 38.14 40.07 38.43 39.6 38.82 39.2 39.78 38.65 40.67 38.4 41.57 38.13 42.44 37.89" style="fill:#002e56;fill-rule:evenodd"></polyline>
</svg>
