<?xml version="1.0" encoding="UTF-8"?>
<svg xmlns="http://www.w3.org/2000/svg" width="376" height="52" viewBox="0 0 376 52" fill="none">
  <g clip-path="url(#clip0_6529_499)">
    <path d="M0 0V52.2234H52.4232V0H0ZM50.1877 49.9964H2.23555V2.22703H50.1804V49.9892L50.1877 49.9964Z" fill="#20424C"></path>
    <path d="M4.18164 4.16602V48.0579H48.2414V4.16602H4.18164ZM22.0154 36.8795C20.3658 38.3426 18.2243 39.0849 15.656 39.0849C14.7299 39.0849 13.7026 38.948 12.6029 38.6813C11.4671 38.4075 10.6495 38.0903 10.1069 37.7228C9.83924 37.5426 9.65837 37.3408 9.55708 37.1174C9.50644 37.0021 9.41238 36.7354 9.21705 35.8129C9.19534 35.7336 9.05065 35.1931 8.78296 34.2129C8.46463 33.1102 8.3127 32.3318 8.3127 31.8417C8.3127 31.5246 8.39228 31.2939 8.55145 31.1426C8.63826 31.0561 8.80466 30.9552 9.05065 30.9696C9.57155 30.9985 9.81753 31.6327 9.95499 32.1012C10.3529 33.4921 11.1994 34.6813 12.4799 35.6255C13.7605 36.5696 15.1713 37.0525 16.6689 37.0525C18.1665 37.0525 19.476 36.5985 20.5105 35.6976C21.5523 34.7967 22.0588 33.7444 22.0588 32.4615C22.0588 31.1786 21.5958 30.2417 20.6408 29.3985C20.308 29.103 19.2662 28.5336 16.2131 27.4958C13.5796 26.5949 11.6841 25.5714 10.57 24.4615C9.42686 23.3156 8.84807 21.8237 8.84807 20.0147C8.84807 17.9966 9.60049 16.3246 11.0836 15.0489C12.5523 13.7876 14.4623 13.1462 16.7629 13.1462C18.0579 13.1462 19.1721 13.3408 20.0764 13.73L21.2847 14.2489C21.4294 14.3138 21.5523 14.2777 21.6464 14.1985L21.8707 14.0039C21.9575 13.9102 22.1167 13.8237 22.3482 13.8237C22.5218 13.8237 22.681 13.8885 22.8112 14.0111C23.021 14.2129 23.1223 14.5444 23.1223 15.0561C23.1223 15.157 23.1512 15.5246 23.3466 16.8003L23.6287 18.6309C23.7083 19.1786 23.7228 19.3372 23.7228 19.4165C23.7228 20.2597 23.1585 20.3318 22.9848 20.3318C22.5001 20.3318 22.2396 19.7408 22.0732 19.2291C21.6826 18.0255 20.8723 17.0237 19.6568 16.2381C18.4342 15.4453 17.0523 15.0489 15.5475 15.0489C14.3682 15.0489 13.4205 15.3876 12.6319 16.0867C11.8577 16.7786 11.4888 17.6075 11.4888 18.6381C11.4888 19.5606 11.7347 20.339 12.2412 21.0021C12.6825 21.5714 13.1672 21.9894 13.6809 22.2489C14.2307 22.5228 15.6198 23.0417 17.812 23.7768C22.2758 25.2615 24.5331 27.748 24.5331 31.1786C24.5331 33.4921 23.6866 35.4165 22.0298 36.8867L22.0154 36.8795ZM44.0019 14.6525C43.8065 15.4021 43.7125 16.4183 43.7125 17.6795C43.7125 18.7462 43.1337 18.8615 42.8877 18.8615C42.743 18.8615 42.28 18.8039 42.2221 18.0831C42.1859 17.7372 42.1281 17.3768 42.0412 17.0165C41.8676 16.3102 41.6795 16.1084 41.6071 16.0507C41.5276 15.993 41.2454 15.8489 40.2832 15.7552L38.2213 15.539C37.5846 15.4813 36.7671 15.4525 35.7759 15.4525C34.0902 15.4525 33.6417 15.6039 33.5187 15.6687C33.3378 15.7696 33.2365 16.1372 33.2365 16.6777L33.251 24.512C33.2654 24.5624 33.5187 24.6345 33.8876 24.6345L35.3997 24.6705L38.0187 24.6201C39.0171 24.6201 39.7406 24.4759 40.1602 24.1948C40.5581 23.9282 40.8186 23.4453 40.9271 22.7534C41.0356 22.0976 41.4625 22.0255 41.6433 22.0255C41.8821 22.0255 42.0268 22.1336 42.1136 22.2201C42.2655 22.3858 42.3306 22.6237 42.3089 22.9624L42.2004 24.721C42.1859 24.9372 42.1859 25.2976 42.1859 25.7804C42.1859 27.1426 42.2076 28.0147 42.251 28.3822C42.28 28.6273 42.2872 28.8075 42.2872 28.9228C42.2872 29.4994 41.9327 29.7084 41.5999 29.7084C40.9633 29.7084 40.7752 28.8363 40.71 28.5552C40.5509 27.8345 40.4062 27.5318 40.3194 27.4093C40.2108 27.2579 40.001 27.1426 39.7044 27.0705C38.952 26.8759 37.8234 26.7822 36.3547 26.7822C34.9801 26.7822 34.0902 26.8111 33.6923 26.8687C33.3667 26.912 33.3016 26.9985 33.3016 26.9985C33.2654 27.1426 33.222 27.4237 33.222 27.993V34.6237C33.222 35.4741 33.4391 36.1516 33.8659 36.6417C34.2856 37.1246 34.8499 37.3624 35.5733 37.3624C36.4198 37.3624 36.5356 37.8453 36.55 38.0543C36.5717 38.3066 36.4705 38.4795 36.3836 38.5804C36.2245 38.7534 35.993 38.8327 35.6674 38.8327C35.3925 38.8327 35.0307 38.8039 34.5532 38.7534C34.177 38.703 33.62 38.6741 32.8748 38.6741L31.6593 38.6525L30.3209 38.6669C30.0387 38.6669 29.6481 38.6885 29.1561 38.739L28.2517 38.7967C27.9262 38.8111 27.7019 38.739 27.55 38.5876C27.4632 38.5012 27.3619 38.357 27.3619 38.1192C27.3619 37.8597 27.5066 37.521 28.1866 37.3696C28.8233 37.2255 29.2574 36.966 29.4744 36.584C29.6336 36.2958 29.8289 35.6687 29.8289 34.2994V18.2417C29.8289 17.1822 29.6625 16.3678 29.337 15.8273C29.1344 15.4813 28.9246 15.2507 28.7148 15.1426C28.5484 15.0561 28.1939 14.948 27.3908 14.8759C26.7324 14.8183 26.6312 14.4003 26.6239 14.2273C26.6022 13.9606 26.7107 13.7804 26.8048 13.6795C26.9857 13.4849 27.2751 13.3912 27.6874 13.3912C27.8538 13.3912 28.2228 13.4201 28.8088 13.4849C29.8362 13.593 31.5942 13.6435 34.0468 13.6435C36.2389 13.6435 37.6642 13.6291 38.2864 13.593L40.7245 13.4705C42.0051 13.4129 42.5115 13.3552 42.7068 13.3192C42.9528 13.2687 43.1626 13.2399 43.358 13.2399C43.821 13.2399 44.1031 13.5354 44.1031 14.0111C44.1031 14.184 44.0742 14.4003 44.0091 14.6813L44.0019 14.6525Z" fill="#20424C"></path>
    <path d="M70.7198 15.373C71.8919 15.373 73.035 15.5892 74.1564 16.0144L75.408 16.5117C75.9651 16.7279 76.3702 16.836 76.6017 16.836C76.7753 16.836 76.9562 16.7928 77.1443 16.7135L77.8533 16.3748C77.9546 16.3243 78.0559 16.3027 78.15 16.3027C78.4104 16.3027 78.5406 16.4973 78.5406 16.8937L78.5045 18.3423C78.5045 18.5658 78.5189 18.782 78.5406 18.9838L78.7866 20.7351L78.9747 22.364C78.9964 22.5081 79.0109 22.6234 79.0109 22.7243C79.0109 23.236 78.8517 23.4955 78.5406 23.4955C78.3164 23.4955 78.1572 23.2721 78.0559 22.818C77.6942 21.1532 76.7826 19.7189 75.3212 18.5081C73.8597 17.2973 72.3115 16.6919 70.6764 16.6919C69.555 16.6919 68.5711 17.0523 67.7391 17.7802C66.8999 18.5009 66.4875 19.3586 66.4875 20.3459C66.4875 21.2613 66.8565 22.0469 67.5944 22.7099C68.0719 23.1351 69.5478 23.8342 72.0366 24.8C74.9956 25.9532 76.9562 27.0847 77.9184 28.1946C79.0543 29.5279 79.6259 31.1351 79.6259 33.0234C79.6259 35.0991 78.8373 36.9009 77.2673 38.436C75.6974 39.9712 73.8597 40.7423 71.7472 40.7423C70.8862 40.7423 69.5189 40.4613 67.6523 39.8991C66.7769 39.6252 66.1402 39.4451 65.7278 39.3658C65.1563 39.2577 64.8235 39.1568 64.7294 39.0559C64.6354 38.955 64.5558 38.6451 64.4979 38.1333C64.4328 37.5712 64.2447 36.764 63.9336 35.7045C63.4634 34.0829 63.2246 33.0523 63.2246 32.5982C63.2246 32.0288 63.42 31.7405 63.8034 31.7405C63.977 31.7405 64.1 31.8847 64.1796 32.1658C64.7946 34.2054 65.8508 35.9279 67.3629 37.3189C68.875 38.7099 70.4377 39.4018 72.0655 39.4018C73.3244 39.4018 74.453 38.9405 75.4442 38.018C76.4353 37.0955 76.9345 36.0433 76.9345 34.8541C76.9345 33.9171 76.6741 33.146 76.1604 32.5405C75.6395 31.9351 74.7496 31.3658 73.4763 30.8324L70.633 29.6216C67.9489 28.4757 66.1258 27.3946 65.1635 26.3784C64.2013 25.3622 63.7238 24.0072 63.7238 22.3135C63.7238 20.3459 64.3966 18.7027 65.7351 17.3766C67.0735 16.0577 68.7447 15.3946 70.7343 15.3946L70.7198 15.373Z" fill="#20424C"></path>
    <path d="M95 31.5968H88.6985C88.0691 31.5968 87.6784 31.6761 87.5337 31.8347C87.389 31.9932 87.3167 32.4041 87.3167 33.0671V36.2239C87.3167 37.4275 87.5192 38.2851 87.9316 38.8185C88.3368 39.3446 89.0096 39.6113 89.9357 39.6113C90.2395 39.6113 90.3842 39.7266 90.3842 39.95C90.3842 40.2167 90.1527 40.3536 89.6897 40.3536C89.5305 40.3536 89.2122 40.3248 88.7492 40.2743C87.7073 40.159 86.7451 40.0941 85.8625 40.0941C85.3126 40.0941 84.5819 40.1374 83.6703 40.2311C83.1277 40.2887 82.7877 40.3176 82.6502 40.3176C82.3681 40.3176 82.2234 40.1734 82.2234 39.8923C82.2234 39.7122 82.3319 39.6113 82.5562 39.5824C83.1567 39.4887 83.5908 39.2293 83.8512 38.7969C84.1117 38.3644 84.2419 37.7086 84.2419 36.8293L84.2564 36.1446V25.5644C84.2564 24.9446 84.0827 24.4905 83.7282 24.2023C83.3809 23.914 82.7298 23.6761 81.7821 23.4959C81.5361 23.4455 81.4131 23.3158 81.4131 23.1212C81.4131 22.8689 81.5578 22.7464 81.8399 22.7464C81.9991 22.7464 82.2885 22.7752 82.7153 22.8401C83.4316 22.9482 84.2781 22.9986 85.2403 22.9986C85.5658 22.9986 86.2676 22.941 87.3384 22.8329C87.975 22.7752 88.4598 22.7464 88.7853 22.7464C89.1109 22.7464 89.2628 22.8617 89.2628 23.0923C89.2628 23.2797 89.1326 23.395 88.8794 23.4383C87.8376 23.6041 87.3094 24.2383 87.3094 25.3266V28.5842C87.3094 29.4491 87.3745 29.9536 87.5048 30.0977C87.635 30.2491 88.0618 30.3212 88.7853 30.3212H94.9928C95.5354 30.3212 95.8609 30.2203 95.9839 30.0113C96.1069 29.8023 96.1648 29.2329 96.1648 28.2887V25.5572C96.1648 24.4761 95.5426 23.8203 94.291 23.6041L93.676 23.4887C93.4301 23.4455 93.3071 23.323 93.3071 23.114C93.3071 22.8617 93.4518 22.7392 93.7339 22.7392C93.8931 22.7392 94.1825 22.768 94.6093 22.8329C95.3328 22.941 96.1793 22.9914 97.1487 22.9914C97.4888 22.9914 98.1833 22.9338 99.2468 22.8257C99.8835 22.768 100.368 22.7392 100.694 22.7392C101.019 22.7392 101.171 22.8545 101.171 23.0851C101.171 23.2725 101.041 23.3878 100.788 23.4311C99.746 23.5968 99.2179 24.2311 99.2179 25.3194V36.2095C99.2179 37.4131 99.4204 38.2707 99.8256 38.8041C100.231 39.3302 100.889 39.5968 101.801 39.5968C102.126 39.5968 102.293 39.7122 102.293 39.9356C102.293 40.2023 102.061 40.3392 101.598 40.3392C101.439 40.3392 101.128 40.3104 100.665 40.2599C99.6086 40.1446 98.6463 40.0797 97.7782 40.0797C97.2211 40.0797 96.4831 40.123 95.5716 40.2167C95.0289 40.2743 94.6889 40.3032 94.5514 40.3032C94.2693 40.3032 94.1246 40.159 94.1246 39.8779C94.1246 39.6978 94.2331 39.5969 94.4574 39.568C95.0579 39.4743 95.492 39.2149 95.7524 38.7824C96.0129 38.35 96.1431 37.6941 96.1431 36.8149L96.1576 36.1302V33.341C96.1576 32.5122 96.0997 32.0149 95.9839 31.8419C95.8682 31.6689 95.5354 31.5824 94.9855 31.5824L95 31.5968Z" fill="#20424C"></path>
    <path d="M112.689 24.3099L118.737 37.564C119.041 38.2342 119.395 38.7315 119.8 39.0631C120.205 39.3946 120.734 39.6108 121.385 39.7261C121.544 39.755 121.623 39.8703 121.623 40.0865C121.623 40.3171 121.522 40.4324 121.32 40.4252C121.204 40.418 121.037 40.3892 120.813 40.346C120.133 40.2018 119.033 40.1297 117.514 40.1297C115.995 40.1297 114.953 40.1946 114.403 40.3315C114.273 40.3676 114.157 40.382 114.056 40.382C113.81 40.382 113.68 40.2595 113.68 40.0216C113.68 39.8991 113.774 39.8126 113.969 39.7478C114.396 39.6324 114.743 39.4162 115.025 39.1135C115.308 38.8108 115.445 38.4865 115.445 38.1478C115.445 37.6721 115.062 36.6342 114.295 35.027C114.056 34.5369 113.795 34.2559 113.506 34.1838C113.217 34.1117 112.204 34.0757 110.453 34.0757H108.652L107.458 34.2775C107.132 34.4216 106.763 34.9766 106.344 35.9496L105.931 36.9225C105.808 37.2036 105.743 37.4847 105.743 37.773C105.743 38.8396 106.524 39.4523 108.08 39.6252C108.413 39.6685 108.579 39.791 108.572 40C108.557 40.2234 108.391 40.3387 108.094 40.3387C107.935 40.3387 107.711 40.3099 107.414 40.2595C106.828 40.1514 106.307 40.0937 105.844 40.0937C105.425 40.0937 104.752 40.1369 103.819 40.2234C103.124 40.2883 102.697 40.3243 102.524 40.3243C102.278 40.3243 102.147 40.2234 102.147 40.0144C102.147 39.8414 102.27 39.7117 102.516 39.6252C102.994 39.4811 103.377 39.2144 103.667 38.8324C103.956 38.4505 104.383 37.636 104.947 36.4036L108.572 28.418C108.861 27.7838 109.071 27.3514 109.18 27.1135L110.417 24.6919L111.053 23.5027V23.5387C111.336 22.8973 111.524 22.573 111.625 22.573C111.77 22.573 112.008 22.9261 112.356 23.6396L112.674 24.3099H112.689ZM113.188 32.2451L111.451 28.3676C111.039 27.4378 110.742 26.9766 110.562 26.9766C110.453 26.9766 110.258 27.2793 109.975 27.8775L109.722 28.4108L108.174 31.791L108.029 32.1081C107.964 32.2378 107.935 32.346 107.935 32.4396C107.935 32.7279 108.254 32.8721 108.89 32.8721H112.812C113.144 32.8721 113.318 32.7856 113.318 32.6054C113.318 32.5622 113.296 32.4901 113.253 32.3892L113.188 32.2523V32.2451Z" fill="#20424C"></path>
    <path d="M127.542 35.2937C127.542 36.9009 127.694 37.9892 128.005 38.5586C128.316 39.1279 128.924 39.4595 129.835 39.5387C130.204 39.5748 130.393 39.7117 130.393 39.9496C130.393 40.1874 130.241 40.3099 129.944 40.3099C129.85 40.3099 129.662 40.2955 129.401 40.2739C128.642 40.2162 127.904 40.1874 127.195 40.1874C126.601 40.1874 126.073 40.2018 125.61 40.2378L124.496 40.3315L123.606 40.4036C123.36 40.4252 123.187 40.4396 123.085 40.4396C122.767 40.4396 122.608 40.3243 122.608 40.0937C122.608 39.9063 122.695 39.7838 122.876 39.7333C123.476 39.5532 123.896 39.3153 124.127 39.0198C124.359 38.7171 124.474 38.2631 124.474 37.6433V36.4396L124.489 35.9423V26.7748C124.489 25.7586 124.359 25.0811 124.091 24.7351C123.657 24.173 122.948 23.827 121.964 23.7117C121.602 23.6613 121.421 23.5171 121.421 23.2721C121.421 23.027 121.544 22.9117 121.79 22.9117C121.884 22.9117 122.044 22.9261 122.268 22.9478C122.948 23.0126 123.7 23.0487 124.511 23.0487C125.408 23.0487 126.493 23.0054 127.766 22.9117C129.264 22.8036 130.298 22.746 130.863 22.746C132.548 22.746 133.938 23.1856 135.052 24.0577C136.166 24.9297 136.716 26.0396 136.716 27.3658C136.716 28.2018 136.47 28.9658 135.978 29.6505C135.486 30.3351 134.813 30.8541 133.952 31.2144C133.771 31.2793 133.692 31.3658 133.699 31.4667C133.706 31.5532 133.749 31.6541 133.829 31.7694C133.909 31.8847 134.032 32.0865 134.191 32.3676L135.37 34.3712L136.737 36.6919C137.208 37.4775 137.627 38.0252 137.996 38.3279C138.365 38.6306 138.792 38.782 139.291 38.782C139.494 38.782 139.682 38.7676 139.863 38.7315C139.971 38.7027 140.065 38.6955 140.152 38.6955C140.311 38.6955 140.391 38.7892 140.391 38.9838C140.391 39.2288 140.029 39.5099 139.306 39.8198C138.582 40.1297 137.938 40.2883 137.374 40.2883C136.462 40.2883 135.623 39.8631 134.856 39.0054C134.089 38.1478 133.091 36.5333 131.861 34.155C131.384 33.218 130.993 32.6198 130.682 32.3748C130.371 32.1225 129.864 32 129.17 32H128.345L127.745 32.1009C127.614 32.1658 127.542 32.3748 127.542 32.7063V35.2793V35.2937ZM127.542 25.391V29.7802C127.542 30.3207 127.614 30.6667 127.759 30.8108C127.904 30.955 128.251 31.027 128.808 31.027C130.385 31.027 131.369 30.9982 131.745 30.9478C132.122 30.8901 132.476 30.7243 132.802 30.436C133.453 29.8739 133.771 29.1099 133.771 28.1225C133.771 26.8469 133.337 25.7874 132.462 24.9586C131.586 24.1225 130.472 23.7117 129.126 23.7117C128.526 23.7117 128.106 23.8342 127.882 24.0721C127.658 24.3099 127.542 24.7568 127.542 25.3982V25.391Z" fill="#20424C"></path>
    <path d="M149.724 25.946V35.5027C149.724 36.9297 149.941 37.946 150.375 38.5442C150.809 39.1424 151.576 39.4739 152.676 39.5387C152.994 39.5676 153.153 39.7189 153.153 39.9928C153.153 40.1874 153.016 40.2883 152.741 40.2883C152.676 40.2883 152.567 40.2883 152.408 40.2739L151.409 40.2378L149.745 40.1369C149.615 40.1297 149.434 40.1225 149.217 40.1225C148.704 40.1225 148.241 40.1369 147.835 40.1586L144.898 40.3243C144.587 40.3604 144.377 40.3748 144.261 40.3748C143.987 40.3748 143.856 40.2595 143.864 40.036C143.871 39.8487 143.914 39.7261 143.994 39.6685C144.073 39.6108 144.247 39.5748 144.515 39.5604C145.209 39.5171 145.737 39.2793 146.114 38.8396C146.49 38.4072 146.678 37.809 146.678 37.0595L146.663 36.4613V25.1892C146.663 24.5189 146.287 24.1874 145.535 24.1874C143.762 24.1874 142.554 24.3099 141.91 24.555C141.44 24.7423 141.129 24.9514 140.977 25.182C140.825 25.4126 140.608 25.9964 140.347 26.9189L140.239 27.2721C140.145 27.618 139.993 27.791 139.79 27.791C139.501 27.791 139.364 27.6613 139.378 27.3946C139.385 27.1568 139.429 26.8252 139.508 26.4072L139.638 25.3045L139.798 24.173L139.892 23.4018C139.928 23.0703 140.116 22.9045 140.449 22.9045C140.536 22.9045 140.687 22.9117 140.897 22.9333C141.245 22.9622 141.737 22.9694 142.373 22.9694L145.086 22.9982L148.313 23.0342C150.397 23.0342 152.603 22.9766 154.933 22.8685C155.396 22.8541 155.692 22.8396 155.823 22.8396C156.307 22.8396 156.568 23.0342 156.59 23.4234L156.655 24.3387C156.662 24.4829 156.705 24.8288 156.785 25.3694C156.85 25.8162 156.879 26.1766 156.879 26.4505C156.879 26.7243 156.756 26.8685 156.517 26.8685C156.315 26.8685 156.17 26.7099 156.09 26.3856C155.902 25.5928 155.548 25.0234 155.02 24.6775C154.491 24.3315 153.732 24.1514 152.726 24.1514C151.38 24.1514 150.541 24.2523 150.208 24.4469C149.876 24.6487 149.709 25.1387 149.709 25.9243L149.724 25.946Z" fill="#20424C"></path>
    <path d="M163.311 22.573C164.143 22.573 164.96 22.7243 165.756 23.027L166.646 23.3802C167.044 23.5315 167.326 23.6108 167.5 23.6108C167.623 23.6108 167.753 23.582 167.883 23.5243L168.389 23.2865C168.462 23.2505 168.534 23.236 168.599 23.236C168.787 23.236 168.881 23.373 168.881 23.6541L168.852 24.6847C168.852 24.8432 168.86 24.9946 168.881 25.1387L169.055 26.3856L169.185 27.5387C169.2 27.6396 169.214 27.7261 169.214 27.791C169.214 28.1514 169.106 28.3387 168.881 28.3387C168.722 28.3387 168.606 28.1802 168.534 27.8559C168.274 26.6739 167.63 25.6505 166.588 24.7928C165.546 23.9351 164.446 23.5027 163.289 23.5027C162.493 23.5027 161.791 23.7622 161.198 24.2739C160.605 24.7856 160.308 25.3982 160.308 26.0973C160.308 26.746 160.569 27.3081 161.09 27.7766C161.43 28.0793 162.479 28.5766 164.244 29.2613C166.349 30.0829 167.738 30.8901 168.426 31.6757C169.236 32.627 169.634 33.7658 169.634 35.1063C169.634 36.5766 169.077 37.8595 167.963 38.955C166.848 40.0433 165.539 40.591 164.041 40.591C163.426 40.591 162.457 40.3892 161.133 39.9928C160.511 39.7982 160.055 39.6685 159.766 39.6108C159.36 39.5315 159.122 39.4595 159.057 39.3874C158.991 39.3153 158.934 39.0991 158.89 38.7315C158.847 38.3351 158.709 37.7586 158.492 37.0018C158.152 35.8487 157.986 35.1135 157.986 34.7964C157.986 34.3928 158.123 34.191 158.398 34.191C158.521 34.191 158.608 34.2919 158.666 34.4937C159.1 35.9496 159.852 37.1676 160.93 38.155C162.001 39.1424 163.115 39.6396 164.273 39.6396C165.17 39.6396 165.966 39.3153 166.675 38.6595C167.384 38.0036 167.731 37.2541 167.731 36.4108C167.731 35.7478 167.55 35.1928 167.181 34.7676C166.812 34.3351 166.176 33.9315 165.271 33.5496L163.246 32.6847C161.336 31.8703 160.041 31.1063 159.36 30.3784C158.68 29.6577 158.333 28.6919 158.333 27.4883C158.333 26.0901 158.811 24.9225 159.758 23.9856C160.713 23.0487 161.893 22.573 163.311 22.573Z" fill="#20424C"></path>
    <path d="M176.948 36.2958L177.056 37.5642C177.165 38.2129 177.418 38.7174 177.831 39.0633C178.243 39.4093 178.778 39.5823 179.444 39.5823C179.878 39.5823 180.095 39.712 180.095 39.9714C180.095 40.2309 179.806 40.3462 179.234 40.3462C178.988 40.3462 178.634 40.3246 178.171 40.2814C177.02 40.1588 176.087 40.094 175.364 40.094C174.481 40.094 173.779 40.1372 173.265 40.2237C172.824 40.303 172.506 40.3462 172.31 40.3462C172.115 40.3462 171.992 40.2525 171.941 40.0723L171.913 39.9714L172.296 39.6759C172.933 39.4597 173.359 39.1859 173.562 38.8687C173.772 38.5516 173.873 38.0255 173.873 37.2904L173.888 36.1588V26.0615C173.888 25.2832 173.743 24.7282 173.461 24.4039C173.179 24.0723 172.658 23.8561 171.905 23.748C171.457 23.6759 171.16 23.6111 171.037 23.5462C170.907 23.4814 170.842 23.3732 170.842 23.2147C170.842 22.9768 170.95 22.8615 171.16 22.8687C171.319 22.8759 171.558 22.912 171.876 22.9696C172.195 23.0345 172.73 23.0705 173.482 23.0705C173.982 23.0705 174.597 23.0417 175.327 22.9841L176.297 22.912C177.208 22.8471 177.91 22.8183 178.395 22.8183C178.684 22.8183 178.836 22.9192 178.836 23.1282C178.836 23.2868 178.815 23.3877 178.771 23.4381C178.728 23.4886 178.619 23.5318 178.438 23.5534C177.802 23.6543 177.389 23.8273 177.208 24.0579C177.028 24.2886 176.933 24.7786 176.933 25.5066V36.303L176.948 36.2958Z" fill="#20424C"></path>
    <path d="M186.274 22.573C187.106 22.573 187.923 22.7243 188.719 23.027L189.609 23.3802C190.007 23.5315 190.289 23.6108 190.456 23.6108C190.579 23.6108 190.709 23.582 190.839 23.5243L191.346 23.2865C191.418 23.2505 191.49 23.236 191.555 23.236C191.743 23.236 191.837 23.373 191.837 23.6541L191.809 24.6847C191.809 24.8432 191.816 24.9946 191.837 25.1387L192.011 26.3856L192.141 27.5387C192.156 27.6396 192.17 27.7261 192.17 27.791C192.17 28.1514 192.062 28.3387 191.837 28.3387C191.678 28.3387 191.563 28.1802 191.49 27.8559C191.23 26.6739 190.586 25.6505 189.544 24.7928C188.502 23.9351 187.403 23.5027 186.245 23.5027C185.449 23.5027 184.747 23.7622 184.154 24.2739C183.561 24.7856 183.264 25.3982 183.264 26.0973C183.264 26.746 183.525 27.3081 184.046 27.7766C184.386 28.0793 185.435 28.5766 187.2 29.2613C189.305 30.0829 190.694 30.8901 191.382 31.6757C192.192 32.627 192.59 33.7658 192.59 35.1063C192.59 36.5766 192.033 37.8595 190.919 38.955C189.805 40.0433 188.495 40.591 186.997 40.591C186.39 40.591 185.413 40.3892 184.089 39.9928C183.467 39.7982 183.011 39.6685 182.722 39.6108C182.316 39.5315 182.078 39.4595 182.013 39.3874C181.948 39.3153 181.89 39.0991 181.846 38.7315C181.803 38.3351 181.665 37.7586 181.448 37.0018C181.108 35.8487 180.942 35.1135 180.942 34.7964C180.942 34.3928 181.079 34.191 181.354 34.191C181.477 34.191 181.564 34.2919 181.622 34.4937C182.056 35.9496 182.808 37.1676 183.886 38.155C184.957 39.1424 186.071 39.6396 187.229 39.6396C188.126 39.6396 188.922 39.3153 189.631 38.6595C190.34 38.0036 190.687 37.2541 190.687 36.4108C190.687 35.7478 190.506 35.1928 190.137 34.7676C189.768 34.3351 189.132 33.9315 188.227 33.5496L186.202 32.6847C184.292 31.8703 182.997 31.1063 182.316 30.3784C181.636 29.6577 181.289 28.6919 181.289 27.4883C181.289 26.0901 181.767 24.9225 182.714 23.9856C183.669 23.0487 184.849 22.573 186.267 22.573H186.274Z" fill="#20424C"></path>
    <path d="M210.278 24.7712C210.278 25.4414 210.365 25.8883 210.546 26.1117C210.727 26.3351 211.081 26.4505 211.602 26.4505L212.311 26.436L214.352 26.4216C215.278 26.4216 215.972 26.2342 216.45 25.8523C216.92 25.4703 217.39 24.7279 217.853 23.618C217.969 23.3441 218.099 23.2072 218.266 23.2072C218.642 23.2072 218.83 23.3586 218.83 23.6685C218.83 23.755 218.815 23.9063 218.794 24.1297C218.779 24.2811 218.772 24.4685 218.772 24.6847C218.772 25.3766 218.808 26.1838 218.888 27.1063L219.17 30.4721C219.192 30.8324 219.206 31.0847 219.206 31.236C219.206 31.4883 219.04 31.6252 218.7 31.6469C218.461 31.6613 218.316 31.4955 218.251 31.164C218.005 29.9099 217.586 29.0739 217 28.6414C216.413 28.2162 215.393 28 213.932 28C212.065 28 210.98 28.1153 210.698 28.3387C210.416 28.5622 210.271 29.4198 210.271 30.9045L210.293 32.3315V34.436C210.293 36.2162 210.618 37.5135 211.262 38.3279C211.74 38.9261 212.68 39.2721 214.106 39.3802C214.504 39.4162 214.706 39.582 214.706 39.8703C214.706 40.2018 214.569 40.3604 214.294 40.3604C214.048 40.3604 213.686 40.3315 213.208 40.2739C212.76 40.2234 211.856 40.2018 210.495 40.2018H208.419C207.486 40.2018 206.683 40.2451 206.01 40.3243C205.098 40.4469 204.491 40.5045 204.179 40.5045C203.767 40.5045 203.565 40.346 203.565 40.0288C203.565 39.7982 203.738 39.6252 204.085 39.5171C204.831 39.2793 205.337 38.8685 205.597 38.2847C205.858 37.7009 205.988 36.6991 205.988 35.2721V20.591C205.988 19.0919 205.713 18.1189 205.163 17.6649C204.541 17.1387 203.63 16.8505 202.436 16.7928C202.11 16.7712 201.951 16.6198 201.951 16.3532C201.951 16 202.161 15.827 202.588 15.827C202.725 15.827 203.051 15.8414 203.557 15.8775C204.302 15.9351 205.098 15.964 205.93 15.964L209.15 15.9063L214.069 15.8847C215.755 15.8847 217.47 15.8126 219.228 15.6757C219.879 15.6252 220.356 15.6036 220.668 15.6036C220.979 15.6036 221.138 15.9135 221.174 16.5333C221.239 17.2829 221.275 17.7225 221.29 17.845L221.478 19.2072C221.514 19.4811 221.536 19.7117 221.536 19.9063C221.536 20.8865 221.297 21.3766 220.827 21.3766C220.566 21.3766 220.436 21.2108 220.436 20.8793V20.2739C220.436 20.036 220.407 19.827 220.342 19.6541C219.828 18.0901 218.186 17.3045 215.408 17.3045L212.977 17.2901L212.21 17.3045C211.501 17.3045 211.002 17.4342 210.72 17.6865C210.438 17.946 210.3 18.3928 210.3 19.0342V24.7496L210.278 24.7712Z" fill="#20424C"></path>
    <path d="M228.337 35.2937C228.337 36.9009 228.488 37.9892 228.8 38.5586C229.111 39.1279 229.718 39.4595 230.637 39.5387C231.006 39.5748 231.194 39.7117 231.194 39.9496C231.194 40.1874 231.042 40.3099 230.746 40.3099C230.652 40.3099 230.464 40.2955 230.203 40.2739C229.443 40.2162 228.706 40.1874 227.997 40.1874C227.403 40.1874 226.875 40.2018 226.412 40.2378L225.298 40.3315L224.408 40.4036C224.162 40.4252 223.988 40.4396 223.887 40.4396C223.569 40.4396 223.41 40.3243 223.41 40.0937C223.41 39.9063 223.496 39.7838 223.677 39.7333C224.278 39.5532 224.697 39.3153 224.929 39.0198C225.16 38.7171 225.276 38.2631 225.276 37.6433V36.4396L225.291 35.9423V26.7748C225.291 25.7586 225.16 25.0811 224.893 24.7351C224.459 24.173 223.75 23.827 222.766 23.7117C222.404 23.6613 222.223 23.5171 222.223 23.2721C222.223 23.027 222.346 22.9117 222.592 22.9117C222.686 22.9117 222.853 22.9261 223.07 22.9478C223.75 23.0126 224.502 23.0487 225.312 23.0487C226.209 23.0487 227.295 23.0054 228.568 22.9117C230.066 22.8036 231.1 22.746 231.665 22.746C233.35 22.746 234.739 23.1856 235.853 24.0577C236.96 24.9369 237.517 26.0396 237.517 27.3658C237.517 28.2018 237.271 28.9658 236.78 29.6505C236.288 30.3351 235.615 30.8541 234.754 31.2144C234.573 31.2793 234.493 31.3658 234.501 31.4667C234.508 31.5532 234.551 31.6541 234.631 31.7694C234.71 31.8847 234.833 32.0865 234.993 32.3676L236.172 34.3712L237.539 36.6919C238.009 37.4775 238.429 38.0252 238.798 38.3279C239.167 38.6306 239.601 38.782 240.093 38.782C240.296 38.782 240.484 38.7676 240.665 38.7315C240.773 38.7027 240.867 38.6955 240.954 38.6955C241.113 38.6955 241.193 38.7892 241.193 38.9838C241.193 39.2288 240.831 39.5099 240.108 39.8198C239.384 40.1297 238.74 40.2883 238.176 40.2883C237.264 40.2883 236.425 39.8631 235.658 39.0054C234.891 38.1478 233.893 36.5333 232.663 34.155C232.185 33.218 231.795 32.6198 231.484 32.3748C231.173 32.1225 230.666 32 229.972 32H229.147L228.546 32.1009C228.416 32.1658 228.344 32.3748 228.344 32.7063V35.2793L228.337 35.2937ZM228.337 25.391V29.7802C228.337 30.3207 228.409 30.6667 228.554 30.8108C228.698 30.955 229.046 31.027 229.603 31.027C231.18 31.027 232.164 30.9982 232.54 30.9478C232.916 30.8901 233.271 30.7243 233.596 30.436C234.247 29.8739 234.566 29.1099 234.566 28.1225C234.566 26.8469 234.132 25.7874 233.256 24.9586C232.381 24.1225 231.267 23.7117 229.921 23.7117C229.32 23.7117 228.901 23.8342 228.677 24.0721C228.452 24.3099 228.337 24.7568 228.337 25.3982V25.391Z" fill="#20424C"></path>
    <path d="M247.14 36.2958L247.248 37.5642C247.357 38.2129 247.61 38.7174 248.022 39.0633C248.435 39.4093 248.97 39.5823 249.636 39.5823C250.07 39.5823 250.287 39.712 250.287 39.9714C250.287 40.2309 249.998 40.3462 249.426 40.3462C249.18 40.3462 248.826 40.3246 248.363 40.2814C247.212 40.1588 246.279 40.094 245.555 40.094C244.673 40.094 243.971 40.1372 243.457 40.2237C243.016 40.303 242.698 40.3462 242.502 40.3462C242.307 40.3462 242.184 40.2525 242.133 40.0723L242.104 39.9714L242.488 39.6759C243.125 39.4597 243.551 39.1859 243.754 38.8687C243.964 38.5516 244.065 38.0255 244.065 37.2904L244.08 36.1588V26.0615C244.08 25.2832 243.935 24.7282 243.653 24.4039C243.371 24.0723 242.85 23.8561 242.097 23.748C241.649 23.6759 241.352 23.6111 241.229 23.5462C241.099 23.4814 241.034 23.3732 241.034 23.2147C241.034 22.9768 241.142 22.8615 241.352 22.8687C241.511 22.8759 241.75 22.912 242.068 22.9696C242.387 23.0345 242.922 23.0705 243.674 23.0705C244.174 23.0705 244.789 23.0417 245.519 22.9841L246.489 22.912C247.4 22.8471 248.102 22.8183 248.587 22.8183C248.876 22.8183 249.028 22.9192 249.028 23.1282C249.028 23.2868 249.006 23.3877 248.963 23.4381C248.92 23.4886 248.811 23.5318 248.63 23.5534C247.994 23.6543 247.581 23.8273 247.4 24.0579C247.219 24.2886 247.125 24.7786 247.125 25.5066V36.303L247.14 36.2958Z" fill="#20424C"></path>
    <path d="M256.719 25.809V28.5622C256.719 29.3478 256.777 29.8523 256.9 30.0613C257.023 30.2703 257.312 30.3784 257.768 30.3784L258.166 30.364L258.752 30.3496H259.88C260.756 30.3496 261.436 29.8883 261.913 28.9658L262.217 28.346C262.297 28.1946 262.427 28.1153 262.615 28.1081C262.811 28.1009 262.905 28.2162 262.905 28.4541C262.905 28.5189 262.89 28.7063 262.868 29.0162C262.854 29.2396 262.839 29.427 262.839 29.5784C262.839 29.8523 262.883 30.4865 262.962 31.4883C263.013 32.1442 263.042 32.7063 263.042 33.1892L263.056 33.8378C263.056 33.9532 263.042 34.0396 263.02 34.0757C262.984 34.1261 262.912 34.155 262.811 34.1622C262.586 34.1766 262.449 34.018 262.398 33.6793C262.282 32.9586 262.015 32.418 261.602 32.0433C261.371 31.8414 261.089 31.7117 260.756 31.6469C260.423 31.582 259.801 31.5604 258.889 31.5604H257.985C257.558 31.5604 257.269 31.618 257.117 31.7405C256.965 31.8631 256.856 32.1081 256.806 32.4829C256.755 32.9081 256.726 33.5712 256.726 34.4865V35.6252C256.726 36.8144 256.82 37.6721 257.015 38.1982C257.167 38.5802 257.341 38.8324 257.544 38.9694C257.746 39.1063 258.064 39.1712 258.484 39.1712C262.08 39.1712 264.431 38.1261 265.538 36.036C265.603 35.9351 265.654 35.8775 265.697 35.8703C265.784 35.8559 265.871 35.8847 265.943 35.9568C266.016 36.0288 266.059 36.1225 266.059 36.2306C266.059 37.0595 265.82 37.8667 265.357 38.6523C264.966 39.3153 264.482 39.7838 263.896 40.0721C263.31 40.3604 262.536 40.4973 261.573 40.4973C261.009 40.4973 260.38 40.4613 259.685 40.3964L258.144 40.2595C257.58 40.209 256.813 40.1802 255.843 40.1802C255.2 40.1802 254.216 40.2162 252.892 40.2955C252.53 40.3243 252.269 40.3315 252.11 40.3315C251.9 40.3315 251.785 40.2378 251.763 40.0505C251.756 39.8919 251.85 39.7766 252.052 39.6973C252.559 39.5099 252.899 39.3153 253.08 39.1063C253.261 38.8973 253.405 38.5297 253.514 37.9964C253.608 37.5496 253.659 36.9442 253.659 36.173V26.1261C253.659 25.182 253.499 24.5405 253.174 24.2018C252.848 23.8631 252.183 23.6252 251.163 23.4955C250.924 23.4595 250.801 23.3369 250.801 23.1207C250.801 22.9189 250.945 22.8252 251.242 22.8252C251.3 22.8252 251.437 22.8324 251.64 22.8541C251.799 22.8613 252.016 22.8685 252.291 22.8685L253.63 22.9189L258.665 22.9694C261.559 22.9694 263.346 22.9333 264.019 22.8541C264.091 22.8469 264.149 22.8396 264.207 22.8396C264.467 22.8396 264.59 22.9766 264.59 23.2577C264.59 23.4523 264.619 23.7982 264.67 24.2955C264.742 25.0306 264.778 25.564 264.778 25.8811C264.778 26.5225 264.605 26.8541 264.257 26.8685C264.091 26.8757 264.004 26.6883 264.004 26.3063C264.004 25.4631 263.686 24.8577 263.042 24.4757C262.398 24.1009 261.364 23.9063 259.924 23.9063H258.303L257.399 24.0072C256.95 24.1442 256.719 24.5694 256.719 25.2901L256.704 25.809H256.719Z" fill="#20424C"></path>
    <path d="M272.491 22.573C273.323 22.573 274.14 22.7243 274.936 23.027L275.826 23.3802C276.224 23.5315 276.506 23.6108 276.672 23.6108C276.795 23.6108 276.926 23.582 277.056 23.5243L277.562 23.2865C277.635 23.2505 277.707 23.236 277.772 23.236C277.96 23.236 278.054 23.373 278.054 23.6541L278.025 24.6847C278.025 24.8432 278.033 24.9946 278.054 25.1387L278.228 26.3856L278.358 27.5387C278.373 27.6396 278.387 27.7261 278.387 27.791C278.387 28.1514 278.279 28.3387 278.054 28.3387C277.895 28.3387 277.779 28.1802 277.707 27.8559C277.447 26.6739 276.803 25.6505 275.761 24.7928C274.719 23.9351 273.619 23.5027 272.462 23.5027C271.666 23.5027 270.964 23.7622 270.371 24.2739C269.778 24.7856 269.481 25.3982 269.481 26.0973C269.481 26.746 269.742 27.3081 270.262 27.7766C270.602 28.0793 271.652 28.5766 273.417 29.2613C275.522 30.0829 276.911 30.8901 277.598 31.6757C278.409 32.627 278.807 33.7658 278.807 35.1063C278.807 36.5766 278.25 37.8595 277.135 38.955C276.021 40.0433 274.712 40.591 273.214 40.591C272.606 40.591 271.63 40.3892 270.306 39.9928C269.684 39.7982 269.228 39.6685 268.938 39.6108C268.533 39.5315 268.295 39.4595 268.229 39.3874C268.164 39.3153 268.106 39.0991 268.063 38.7315C268.02 38.3351 267.882 37.7586 267.665 37.0018C267.325 35.8487 267.159 35.1135 267.159 34.7964C267.159 34.3928 267.296 34.191 267.571 34.191C267.694 34.191 267.781 34.2919 267.839 34.4937C268.273 35.9496 269.025 37.1676 270.103 38.155C271.174 39.1424 272.288 39.6396 273.446 39.6396C274.343 39.6396 275.146 39.3153 275.848 38.6595C276.549 38.0036 276.904 37.2541 276.904 36.4108C276.904 35.7478 276.723 35.1928 276.354 34.7676C275.985 34.3351 275.348 33.9315 274.444 33.5496L272.418 32.6847C270.508 31.8703 269.213 31.1063 268.533 30.3784C267.853 29.6577 267.506 28.6919 267.506 27.4883C267.506 26.0901 267.983 24.9225 268.931 23.9856C269.886 23.0487 271.065 22.573 272.484 22.573H272.491Z" fill="#20424C"></path>
    <path d="M286.114 25.809V28.5622C286.114 29.3478 286.172 29.8523 286.295 30.0613C286.418 30.2703 286.707 30.3784 287.163 30.3784L287.561 30.364L288.147 30.3496H289.275C290.151 30.3496 290.831 29.8883 291.308 28.9658L291.612 28.346C291.692 28.1946 291.822 28.1153 292.01 28.1081C292.206 28.1009 292.3 28.2162 292.3 28.4541C292.3 28.5189 292.285 28.7063 292.263 29.0162C292.249 29.2396 292.234 29.427 292.234 29.5784C292.234 29.8523 292.278 30.4865 292.357 31.4883C292.408 32.1442 292.437 32.7063 292.437 33.1892L292.452 33.8378C292.452 33.9532 292.437 34.0396 292.415 34.0757C292.379 34.1261 292.307 34.155 292.206 34.1622C291.981 34.1766 291.844 34.018 291.793 33.6793C291.677 32.9586 291.41 32.418 290.997 32.0433C290.766 31.8414 290.484 31.7117 290.151 31.6469C289.818 31.582 289.196 31.5604 288.284 31.5604H287.38C286.953 31.5604 286.664 31.618 286.512 31.7405C286.36 31.8631 286.251 32.1081 286.201 32.4829C286.15 32.9081 286.121 33.5712 286.121 34.4865V35.6252C286.121 36.8144 286.215 37.6721 286.41 38.1982C286.562 38.5802 286.736 38.8324 286.939 38.9694C287.141 39.1063 287.46 39.1712 287.879 39.1712C291.475 39.1712 293.826 38.1261 294.933 36.036C294.998 35.9351 295.049 35.8775 295.092 35.8703C295.179 35.8559 295.266 35.8847 295.338 35.9568C295.411 36.0288 295.454 36.1225 295.454 36.2306C295.454 37.0595 295.215 37.8667 294.752 38.6523C294.361 39.3153 293.877 39.7838 293.291 40.0721C292.705 40.3604 291.931 40.4973 290.968 40.4973C290.404 40.4973 289.775 40.4613 289.08 40.3964L287.539 40.2595C286.975 40.209 286.208 40.1802 285.238 40.1802C284.595 40.1802 283.611 40.2162 282.287 40.2955C281.925 40.3243 281.664 40.3315 281.505 40.3315C281.295 40.3315 281.18 40.2378 281.158 40.0505C281.151 39.8919 281.245 39.7766 281.447 39.6973C281.954 39.5099 282.294 39.3153 282.475 39.1063C282.656 38.8973 282.8 38.5297 282.909 37.9964C283.003 37.5496 283.054 36.9442 283.054 36.173V26.1261C283.054 25.182 282.894 24.5405 282.569 24.2018C282.243 23.8631 281.578 23.6252 280.558 23.4955C280.319 23.4595 280.196 23.3369 280.196 23.1207C280.196 22.9189 280.34 22.8252 280.637 22.8252C280.695 22.8252 280.832 22.8324 281.035 22.8541C281.194 22.8613 281.411 22.8685 281.686 22.8685L283.025 22.9189L288.06 22.9694C290.954 22.9694 292.741 22.9333 293.414 22.8541C293.486 22.8469 293.544 22.8396 293.602 22.8396C293.862 22.8396 293.985 22.9766 293.985 23.2577C293.985 23.4523 294.014 23.7982 294.065 24.2955C294.137 25.0306 294.173 25.564 294.173 25.8811C294.173 26.5225 294 26.8541 293.652 26.8685C293.486 26.8757 293.399 26.6883 293.399 26.3063C293.399 25.4631 293.081 24.8577 292.437 24.4757C291.793 24.1009 290.759 23.9063 289.319 23.9063H287.698L286.794 24.0072C286.345 24.1442 286.114 24.5694 286.114 25.2901L286.099 25.809H286.114Z" fill="#20424C"></path>
    <path d="M341.117 37.3408V35.2092L338.992 31.1236H340.502L341.916 34.1064H341.664L343.071 31.1236H344.566L342.449 35.2092V37.3408H341.117ZM345.262 37.3408V31.1236H349.429V32.1967H346.594V33.6623H349.162V34.6911H346.594V36.2602H349.429V37.3334H345.262V37.3408ZM354.713 37.3408H356.127L353.862 31.1236H352.337L350.073 37.3408H351.464L351.93 35.979H354.247L354.713 37.3408ZM352.286 34.9501L353.085 32.6261L353.884 34.9501H352.278H352.286ZM360.353 34.7725C360.435 34.7429 360.524 34.7281 360.59 34.6911C360.923 34.5134 361.167 34.2766 361.323 33.988C361.478 33.6993 361.56 33.3884 361.56 33.0554C361.56 32.7001 361.478 32.3744 361.315 32.0858C361.153 31.7971 360.901 31.5602 360.568 31.39C360.235 31.2124 359.813 31.1309 359.31 31.1309H356.897V37.3482H358.229V34.9576H358.999L360.102 37.3482H361.612L360.353 34.7799V34.7725ZM359.968 33.7511C359.813 33.9139 359.569 33.988 359.236 33.988H358.229V32.2264H359.236C359.569 32.2264 359.813 32.3078 359.968 32.4632C360.124 32.6187 360.205 32.8333 360.205 33.0998C360.205 33.3662 360.124 33.5883 359.968 33.7511ZM364.779 37.4519C364.335 37.4519 363.936 37.3778 363.573 37.2224C363.21 37.067 362.929 36.8449 362.722 36.5489C362.515 36.2528 362.404 35.8901 362.381 35.4534H363.802C363.802 35.6237 363.854 35.7791 363.936 35.9049C364.017 36.0307 364.128 36.1344 364.276 36.2084C364.417 36.2824 364.587 36.3194 364.772 36.3194C364.935 36.3194 365.075 36.2972 365.194 36.2454C365.312 36.1936 365.409 36.1196 365.483 36.0234C365.557 35.9272 365.586 35.8013 365.586 35.6533C365.586 35.5053 365.542 35.3646 365.46 35.261C365.379 35.15 365.268 35.0537 365.12 34.9797C364.979 34.8983 364.816 34.8243 364.624 34.7577C364.439 34.6911 364.239 34.6245 364.024 34.5578C363.536 34.395 363.158 34.1804 362.892 33.9065C362.626 33.6326 362.492 33.27 362.492 32.8111C362.492 32.4336 362.589 32.1079 362.774 31.8415C362.959 31.575 363.218 31.3678 363.543 31.2271C363.869 31.0865 364.239 31.0125 364.654 31.0125C365.068 31.0125 365.453 31.0865 365.779 31.2271C366.104 31.3678 366.356 31.5825 366.548 31.8563C366.741 32.1302 366.844 32.4558 366.852 32.8407H365.423C365.423 32.7075 365.379 32.589 365.312 32.4854C365.246 32.3818 365.149 32.293 365.038 32.2264C364.92 32.1598 364.787 32.1302 364.631 32.1302C364.498 32.1302 364.372 32.145 364.261 32.1894C364.15 32.2338 364.061 32.3004 363.995 32.3966C363.928 32.4854 363.899 32.6039 363.899 32.7371C363.899 32.8703 363.936 32.9813 364.002 33.0775C364.069 33.1738 364.165 33.2552 364.284 33.3292C364.402 33.4032 364.55 33.4624 364.713 33.5217C364.876 33.5809 365.053 33.6401 365.253 33.6993C365.564 33.8029 365.853 33.9287 366.119 34.0768C366.386 34.2248 366.593 34.4098 366.756 34.6467C366.918 34.8835 367 35.187 367 35.5718C367 35.9123 366.911 36.2232 366.741 36.5044C366.571 36.7857 366.312 37.0152 365.986 37.1854C365.66 37.3557 365.253 37.4445 364.765 37.4445L364.779 37.4519ZM307.839 26.0535H307.662L308.172 12.0794V10.5547H329.985V14.4479H311.984L311.74 21.1463C313.983 19.3921 316.795 18.3411 319.86 18.3411C322.487 18.3411 324.937 19.1183 327.002 20.4505C325.973 21.3091 325.041 22.2639 324.226 23.3223C322.924 22.634 321.436 22.2343 319.867 22.2343C316.78 22.2343 314.049 23.7442 312.347 26.0535H307.847H307.839ZM354.676 29.7543H350.568C348.725 24.9137 344.048 21.4572 338.563 21.4572C335.632 21.4572 332.938 22.4489 330.777 24.1069C332.242 26.2385 333.108 28.8069 333.108 31.5825C333.108 38.8878 327.165 44.8312 319.86 44.8312C313.746 44.8312 308.594 40.6567 307.084 35.0167H311.178C312.547 38.4806 315.922 40.938 319.867 40.938C320.955 40.938 321.999 40.7381 322.968 40.3977C322.228 38.5103 321.814 36.4601 321.814 34.3136C321.814 25.0765 329.326 17.564 338.563 17.564C346.216 17.564 352.685 22.7302 354.676 29.7543ZM329.208 31.5825C329.208 29.9171 328.764 28.3554 327.994 27.0009C326.55 29.0807 325.699 31.5973 325.699 34.3136C325.699 35.7051 325.936 37.0448 326.351 38.2956C328.112 36.5933 329.208 34.2174 329.208 31.5825ZM350.62 38.7101C348.814 43.6321 344.1 47.1627 338.556 47.1627C334.766 47.1627 331.369 45.5047 329.015 42.892C327.994 43.7209 326.854 44.4167 325.625 44.9496C328.697 48.68 333.353 51.0633 338.556 51.0633C346.268 51.0633 352.774 45.823 354.713 38.7175H350.613L350.62 38.7101Z" fill="url(#paint0_linear_6529_499)"></path>
  </g>
  <defs>
    <linearGradient id="paint0_linear_6529_499" x1="322.687" y1="45.9192" x2="346.246" y2="10.2216" gradientUnits="userSpaceOnUse">
      <stop stop-color="#8F723C"></stop>
      <stop offset="0.11" stop-color="#A07F43"></stop>
      <stop offset="0.31" stop-color="#B9924E"></stop>
      <stop offset="0.52" stop-color="#CB9F56"></stop>
      <stop offset="0.74" stop-color="#D5A75B"></stop>
      <stop offset="1" stop-color="#D9AA5D"></stop>
    </linearGradient>
    <clipPath id="clip0_6529_499">
      <rect width="376" height="52" fill="white"></rect>
    </clipPath>
  </defs>
</svg>
