<?xml version="1.0" encoding="UTF-8"?> <!-- Generator: Adobe Illustrator 25.4.1, SVG Export Plug-In . SVG Version: 6.00 Build 0) --> <svg xmlns="http://www.w3.org/2000/svg" xmlns:xlink="http://www.w3.org/1999/xlink" version="1.1" id="Layer_1" x="0px" y="0px" viewBox="0 0 160 36" style="enable-background:new 0 0 160 36;" xml:space="preserve"> <style type="text/css"> .st0{fill:#FFFFFF;} .st1{fill:#37B34A;} .st2{fill:#8BC53F;} .st3{fill:#D6DE23;} .st4{fill:#2B388F;} .st5{fill:#1B75BB;} .st6{fill:#26A9E0;} </style> <g> <g> <g> <path class="st0" d="M0.5,2.5c2.9,3.7,5.7,7.4,8.6,11c4.6,5.9,9.1,11.7,13.7,17.6c1.1,1.4,2.1,2.7,3.2,4.1 c0.5,0.7,1.4,1.1,2.2,0.6c0.7-0.4,1.1-1.5,0.6-2.2c-2.9-3.7-5.7-7.4-8.6-11c-4.6-5.9-9.1-11.7-13.7-17.6C5.5,3.5,4.4,2.2,3.4,0.8 C2.8,0.1,2-0.3,1.1,0.2C0.4,0.6,0,1.8,0.5,2.5L0.5,2.5z"></path> <path class="st0" d="M7,2.5c2.9,3.7,5.7,7.4,8.6,11c4.6,5.9,9.1,11.7,13.7,17.6c1.1,1.4,2.1,2.7,3.2,4.1c0.5,0.7,1.4,1.1,2.2,0.6 c0.7-0.4,1.1-1.5,0.6-2.2c-2.9-3.7-5.7-7.4-8.6-11C22.1,16.6,17.6,10.7,13,4.9c-1.1-1.4-2.1-2.7-3.2-4.1C9.3,0.1,8.4-0.3,7.6,0.2 C6.9,0.6,6.5,1.8,7,2.5L7,2.5z"></path> <path class="st0" d="M13.7,2.5c2.9,3.7,5.7,7.4,8.6,11c4.6,5.9,9.1,11.7,13.7,17.6c1.1,1.4,2.1,2.7,3.2,4.1 c0.5,0.7,1.4,1.1,2.2,0.6c0.7-0.4,1.1-1.5,0.6-2.2c-2.9-3.7-5.7-7.4-8.6-11c-4.6-5.9-9.1-11.7-13.7-17.6 c-1.1-1.4-2.1-2.7-3.2-4.1c-0.5-0.7-1.4-1.1-2.2-0.6C13.6,0.6,13.2,1.8,13.7,2.5L13.7,2.5z"></path> <path class="st0" d="M39.3,0.5c-2.9,3.7-5.7,7.4-8.6,11c-4.6,5.9-9.1,11.7-13.7,17.6c-1.1,1.4-2.1,2.7-3.2,4.1 c-0.5,0.7-0.7,1.6,0,2.3c0.6,0.6,1.8,0.7,2.3,0c2.9-3.7,5.7-7.4,8.6-11c4.6-5.9,9.1-11.7,13.7-17.6c1.1-1.4,2.1-2.7,3.2-4.1 c0.5-0.7,0.7-1.6,0-2.3C41.1-0.1,39.9-0.2,39.3,0.5L39.3,0.5z"></path> <path class="st0" d="M32.8,0.5c-2.9,3.7-5.7,7.4-8.6,11c-4.6,5.9-9.1,11.7-13.7,17.6c-1.1,1.4-2.1,2.7-3.2,4.1 c-0.5,0.7-0.7,1.6,0,2.3c0.6,0.6,1.8,0.7,2.3,0c2.9-3.7,5.7-7.4,8.6-11c4.6-5.9,9.1-11.7,13.7-17.6c1.1-1.4,2.1-2.7,3.2-4.1 c0.5-0.7,0.7-1.6,0-2.3C34.6-0.1,33.4-0.2,32.8,0.5L32.8,0.5z"></path> <path class="st0" d="M26.1,0.5c-2.9,3.7-5.7,7.4-8.6,11C13,17.4,8.4,23.3,3.8,29.1c-1.1,1.4-2.1,2.7-3.2,4.1 c-0.5,0.7-0.7,1.6,0,2.3c0.6,0.6,1.8,0.7,2.3,0c2.9-3.7,5.7-7.4,8.6-11c4.6-5.9,9.1-11.7,13.7-17.6c1.1-1.4,2.1-2.7,3.2-4.1 c0.5-0.7,0.7-1.6,0-2.3C27.9-0.1,26.7-0.2,26.1,0.5L26.1,0.5z"></path> </g> <g> <path class="st1" d="M0.5,2.5c2.9,3.7,5.7,7.4,8.6,11c4.6,5.9,9.1,11.7,13.7,17.6c1.1,1.4,2.1,2.7,3.2,4.1 c0.5,0.7,1.4,1.1,2.2,0.6c0.7-0.4,1.1-1.5,0.6-2.2c-2.9-3.7-5.7-7.4-8.6-11c-4.6-5.9-9.1-11.7-13.7-17.6C5.5,3.5,4.4,2.2,3.4,0.8 C2.8,0.1,2-0.3,1.1,0.2C0.4,0.6,0,1.8,0.5,2.5L0.5,2.5z"></path> <path class="st2" d="M7,2.5c2.9,3.7,5.7,7.4,8.6,11c4.6,5.9,9.1,11.7,13.7,17.6c1.1,1.4,2.1,2.7,3.2,4.1c0.5,0.7,1.4,1.1,2.2,0.6 c0.7-0.4,1.1-1.5,0.6-2.2c-2.9-3.7-5.7-7.4-8.6-11C22.1,16.6,17.6,10.7,13,4.9c-1.1-1.4-2.1-2.7-3.2-4.1C9.3,0.1,8.4-0.3,7.6,0.2 C6.9,0.6,6.5,1.8,7,2.5L7,2.5z"></path> <path class="st3" d="M13.7,2.5c2.9,3.7,5.7,7.4,8.6,11c4.6,5.9,9.1,11.7,13.7,17.6c1.1,1.4,2.1,2.7,3.2,4.1 c0.5,0.7,1.4,1.1,2.2,0.6c0.7-0.4,1.1-1.5,0.6-2.2c-2.9-3.7-5.7-7.4-8.6-11c-4.6-5.9-9.1-11.7-13.7-17.6 c-1.1-1.4-2.1-2.7-3.2-4.1c-0.5-0.7-1.4-1.1-2.2-0.6C13.6,0.6,13.2,1.8,13.7,2.5L13.7,2.5z"></path> <path class="st4" d="M39.3,0.5c-2.9,3.7-5.7,7.4-8.6,11c-4.6,5.9-9.1,11.7-13.7,17.6c-1.1,1.4-2.1,2.7-3.2,4.1 c-0.5,0.7-0.7,1.6,0,2.3c0.6,0.6,1.8,0.7,2.3,0c2.9-3.7,5.7-7.4,8.6-11c4.6-5.9,9.1-11.7,13.7-17.6c1.1-1.4,2.1-2.7,3.2-4.1 c0.5-0.7,0.7-1.6,0-2.3C41.1-0.1,39.9-0.2,39.3,0.5L39.3,0.5z"></path> <path class="st5" d="M32.8,0.5c-2.9,3.7-5.7,7.4-8.6,11c-4.6,5.9-9.1,11.7-13.7,17.6c-1.1,1.4-2.1,2.7-3.2,4.1 c-0.5,0.7-0.7,1.6,0,2.3c0.6,0.6,1.8,0.7,2.3,0c2.9-3.7,5.7-7.4,8.6-11c4.6-5.9,9.1-11.7,13.7-17.6c1.1-1.4,2.1-2.7,3.2-4.1 c0.5-0.7,0.7-1.6,0-2.3C34.6-0.1,33.4-0.2,32.8,0.5L32.8,0.5z"></path> <path class="st6" d="M26.1,0.5c-2.9,3.7-5.7,7.4-8.6,11C13,17.4,8.4,23.3,3.8,29.1c-1.1,1.4-2.1,2.7-3.2,4.1 c-0.5,0.7-0.7,1.6,0,2.3c0.6,0.6,1.8,0.7,2.3,0c2.9-3.7,5.7-7.4,8.6-11c4.6-5.9,9.1-11.7,13.7-17.6c1.1-1.4,2.1-2.7,3.2-4.1 c0.5-0.7,0.7-1.6,0-2.3C27.9-0.1,26.7-0.2,26.1,0.5L26.1,0.5z"></path> </g> </g> <g> <path class="st0" d="M57.4,17.6l-4.6-9.5c-0.2-0.4,0.1-0.9,0.7-0.9H57c0.2,0,0.4,0.2,0.4,0.3l2.9,6.4h0l5-6.4 c0.1-0.1,0.3-0.3,0.5-0.3h3.5c0.5,0,0.7,0.5,0.4,0.9l-7.6,9.5l4.7,10.1c0.2,0.4-0.1,0.9-0.7,0.9h-3.3c-0.2,0-0.4-0.2-0.5-0.3 l-3.2-7h-0.1l-5.4,7c-0.1,0.1-0.3,0.3-0.6,0.3h-3.3c-0.5,0-0.7-0.5-0.4-0.9L57.4,17.6z"></path> <path class="st0" d="M76.1,10.9h-4.7c-0.3,0-0.5-0.3-0.5-0.6l0.4-2.5c0-0.3,0.3-0.6,0.7-0.6h13.3c0.3,0,0.5,0.3,0.5,0.6l-0.4,2.5 c0,0.3-0.3,0.6-0.7,0.6H80L77.3,28c0,0.3-0.4,0.6-0.7,0.6h-2.8c-0.3,0-0.5-0.3-0.5-0.6L76.1,10.9z"></path> <path class="st0" d="M88.9,7.8c0-0.3,0.3-0.6,0.7-0.6H102c0.3,0,0.5,0.3,0.5,0.6l-0.4,2.5c0,0.3-0.3,0.6-0.7,0.6h-9l-0.8,5h7.5 c0.3,0,0.5,0.3,0.5,0.6L99.2,19c-0.1,0.3-0.4,0.6-0.7,0.6H91l-0.8,5.3h9c0.3,0,0.5,0.3,0.5,0.6L99.3,28c0,0.3-0.3,0.6-0.7,0.6 H86.2c-0.3,0-0.5-0.3-0.5-0.6L88.9,7.8z"></path> <path class="st0" d="M106.2,7.8c0-0.3,0.3-0.6,0.7-0.6h8.7c3.7,0,6.2,2.9,5.6,6.5c-0.4,2.8-2.7,5.1-5.5,6.1l2.9,7.7 c0.2,0.4-0.1,0.9-0.7,0.9h-3.2c-0.3,0-0.4-0.2-0.4-0.3l-2.8-8.1h-3.4L107,28c0,0.3-0.4,0.6-0.7,0.6h-2.8c-0.3,0-0.5-0.3-0.5-0.6 L106.2,7.8z M113.7,16.9c1.6,0,3.2-1.4,3.5-3.1c0.3-1.6-0.9-3-2.5-3h-5l-1,6.1H113.7z"></path> <path class="st0" d="M125.9,7.8c0-0.3,0.3-0.6,0.7-0.6h8.7c3.7,0,6.2,2.9,5.6,6.5c-0.4,2.8-2.7,5.1-5.5,6.1l2.9,7.7 c0.2,0.4-0.1,0.9-0.7,0.9h-3.2c-0.3,0-0.4-0.2-0.4-0.3l-2.8-8.1h-3.4l-1.2,7.8c0,0.3-0.4,0.6-0.7,0.6h-2.8c-0.3,0-0.5-0.3-0.5-0.6 L125.9,7.8z M133.4,16.9c1.6,0,3.2-1.4,3.5-3.1c0.3-1.6-0.9-3-2.5-3h-5l-1,6.1H133.4z"></path> <path class="st0" d="M139.6,27.7l12.7-20.5c0.1-0.2,0.3-0.3,0.6-0.3h0.3c0.3,0,0.4,0.2,0.5,0.3l6.1,20.5c0.1,0.4-0.2,0.8-0.6,0.8 h-2.6c-0.5,0-0.6-0.2-0.8-0.6l-1-3.3h-9.1l-2,3.3c-0.2,0.3-0.5,0.6-1,0.6H140C139.5,28.5,139.3,28.1,139.6,27.7z M153.7,21.3 l-2-6.7h-0.1l-4,6.7H153.7z"></path> </g> </g> </svg> 